<?xml version="1.0" encoding="UTF-8"?>
<svg width="116px" height="87px" viewBox="0 0 116 87" version="1.1" xmlns="http://www.w3.org/2000/svg" xmlns:xlink="http://www.w3.org/1999/xlink">
    <!-- Generator: Sketch 48.2 (47327) - http://www.bohemiancoding.com/sketch -->
    <title>quotes</title>
    <desc>Created with Sketch.</desc>
    <defs></defs>
    <g id="Page-1" stroke="#393939" stroke-width="1" fill="none" fill-rule="evenodd">
        <g id="quotes" fill="#3A3A3A">
            <path d="M47.0709677,69.0882353 C47.0709677,74.4496066 45.0484073,78.7751936 41.0032258,82.0651261 C36.9580443,85.3550585 31.6871293,87 25.1903226,87 C18.6935159,87 12.8709935,83.953812 7.72258065,77.8613445 C2.57416781,71.7688771 0,63.8487882 0,54.1008403 C0,44.3528924 4.4128591,34.3613957 13.2387097,24.1260504 C22.0645603,13.8907051 35.5482964,5.84876874 53.6903226,0 L57,8.04201681 C30.5224483,19.983253 17.283871,36.0671258 17.283871,56.2941176 C20.7161462,52.6386372 24.8838465,50.8109244 29.7870968,50.8109244 C34.6903471,50.8109244 38.7967576,52.5167897 42.1064516,55.9285714 C45.4161456,59.3403532 47.0709677,63.7268639 47.0709677,69.0882353 Z M106.070968,69.0882353 C106.070968,74.4496066 104.048407,78.7751936 100.003226,82.0651261 C95.9580443,85.3550585 90.6871293,87 84.1903226,87 C77.6935159,87 71.8709935,83.953812 66.7225806,77.8613445 C61.5741678,71.7688771 59,63.8487882 59,54.1008403 C59,44.3528924 63.4128591,34.3613957 72.2387097,24.1260504 C81.0645603,13.8907051 94.5482964,5.84876874 112.690323,0 L116,8.04201681 C89.5224483,19.983253 76.283871,36.0671258 76.283871,56.2941176 C79.7161462,52.6386372 83.8838465,50.8109244 88.7870968,50.8109244 C93.6903471,50.8109244 97.7967576,52.5167897 101.106452,55.9285714 C104.416146,59.3403532 106.070968,63.7268639 106.070968,69.0882353 Z" id="“"></path>
        </g>
    </g>
</svg>
